<svg width="40" height="40" fill="none" xmlns="http://www.w3.org/2000/svg"><path d="M27.778 15.556a3.333 3.333 0 1 0 0-6.667 3.333 3.333 0 0 0 0 6.667Z" fill="#CDCDCD"/><path d="M0 4.444A4.444 4.444 0 0 1 4.444 0h31.112A4.444 4.444 0 0 1 40 4.444v31.112A4.444 4.444 0 0 1 35.556 40H4.444A4.444 4.444 0 0 1 0 35.556V4.444Zm35.556 0H4.444v17.6l7.501-6.002a2.222 2.222 0 0 1 2.777 0l9.558 7.647 3.038-3.038a2.222 2.222 0 0 1 3.142 0l5.096 5.095V4.444ZM4.444 35.556h31.112v-3.524l-6.667-6.667-2.873 2.873c-.8.8-2.075.871-2.96.164l-9.723-7.778-8.889 7.11v7.822Z" fill="#CDCDCD"/></svg>
