<svg width="800" height="337" fill="none" xmlns="http://www.w3.org/2000/svg"><g opacity=".7" fill="#EAEAEA"><path d="M106.89 335.165c-19.966 0-37.913-3.823-53.843-11.469-15.824-7.753-28.462-18.373-37.914-31.86C5.682 278.349.637 262.95 0 245.639h47.79c1.168 14.019 7.38 25.541 18.638 34.568 11.257 9.027 24.744 13.54 40.462 13.54 12.531 0 23.629-2.867 33.293-8.602 9.771-5.841 17.417-13.859 22.939-24.054 5.629-10.195 8.443-21.824 8.443-34.886 0-13.275-2.867-25.116-8.602-35.524-5.735-10.408-13.647-18.585-23.736-24.532-9.982-5.947-21.452-8.974-34.408-9.08-9.877 0-19.806 1.699-29.79 5.097-9.982 3.399-18.053 7.859-24.213 13.382l-45.081-6.691L24.055 4.46h179.37v42.215H64.994L54.64 137.953h1.911c6.372-6.16 14.815-11.31 25.329-15.452 10.62-4.142 21.983-6.213 34.09-6.213 19.859 0 37.541 4.726 53.046 14.178 15.612 9.452 27.878 22.355 36.798 38.71 9.027 16.248 13.488 34.939 13.382 56.073.106 21.134-4.673 39.984-14.337 56.551-9.558 16.567-22.833 29.63-39.825 39.188-16.886 9.451-36.267 14.177-58.144 14.177ZM390.96 336.121c-25.169-.106-46.675-6.744-64.516-19.912-17.842-13.169-31.488-32.338-40.94-57.507-9.452-25.17-14.178-55.489-14.178-90.96 0-35.364 4.726-65.578 14.178-90.641 9.558-25.063 23.257-44.18 41.099-57.348C344.551 6.584 366.003 0 390.96 0s46.356 6.637 64.197 19.912c17.842 13.17 31.488 32.285 40.94 57.348 9.558 24.957 14.337 55.118 14.337 90.482 0 35.577-4.726 65.95-14.178 91.119-9.451 25.063-23.098 44.232-40.939 57.507-17.842 13.169-39.294 19.753-64.357 19.753Zm0-42.533c22.089 0 39.347-10.779 51.772-32.338 12.531-21.558 18.797-52.727 18.797-93.508 0-27.081-2.867-49.967-8.602-68.658-5.628-18.797-13.753-33.028-24.373-42.692-10.513-9.77-23.045-14.656-37.594-14.656-21.984 0-39.241 10.833-51.772 32.497-12.532 21.665-18.851 52.835-18.957 93.509 0 27.187 2.814 50.179 8.443 68.976 5.735 18.692 13.859 32.869 24.373 42.533 10.513 9.558 23.151 14.337 37.913 14.337ZM680.526 336.121c-25.17-.106-46.675-6.744-64.516-19.912-17.842-13.169-31.489-32.338-40.94-57.507-9.452-25.17-14.178-55.489-14.178-90.96 0-35.364 4.726-65.578 14.178-90.641 9.558-25.063 23.257-44.18 41.099-57.348C634.117 6.584 655.569 0 680.526 0s46.356 6.637 64.197 19.912c17.842 13.17 31.488 32.285 40.94 57.348C795.221 102.217 800 132.378 800 167.742c0 35.577-4.726 65.95-14.178 91.119-9.451 25.063-23.098 44.232-40.94 57.507-17.841 13.169-39.293 19.753-64.356 19.753Zm0-42.533c22.089 0 39.347-10.779 51.772-32.338 12.531-21.558 18.797-52.727 18.797-93.508 0-27.081-2.867-49.967-8.602-68.658-5.629-18.797-13.753-33.028-24.373-42.692-10.514-9.77-23.045-14.656-37.594-14.656-21.984 0-39.241 10.833-51.773 32.497-12.531 21.665-18.85 52.835-18.956 93.509 0 27.187 2.814 50.179 8.443 68.976 5.734 18.692 13.859 32.869 24.372 42.533 10.514 9.558 23.152 14.337 37.914 14.337Z"/></g></svg>
