<svg width="24" height="22" fill="none" xmlns="http://www.w3.org/2000/svg"><path d="M20.859 3.1569c-.8186-.919-2.2969-.9756-3.2823.0385l-9.6476 9.9275c-.2495.2568-.2495.5838 0 .8405.2495.2568.5673.2568.8168 0l7.9801-8.2117c.4652-.4786 1.2193-.4786 1.6844 0 .4652.4787.4652 1.2547 0 1.7333l-7.9801 8.2117c-1.1798 1.214-3.0059 1.214-4.1857 0-1.1797-1.214-1.1797-3.0931 0-4.3071l9.6477-9.9276c1.867-1.9212 4.9011-1.9837 6.705.0188 1.8489 1.9223 1.9033 5.0292-.0351 6.8796L11.264 19.9864c-2.609 2.6848-6.6981 2.6848-9.3072 0-2.609-2.6847-2.609-6.8925 0-9.5773L11.6044.4815c.4652-.4786 1.2193-.4786 1.6845 0 .4651.4787.4651 1.2547 0 1.7334l-9.6477 9.9275c-1.6788 1.7275-1.6788 4.3832 0 6.1107 1.6788 1.7275 4.2596 1.7275 5.9384 0L20.8948 6.6097a1.2334 1.2334 0 0 1 .0373-.0369c.893-.8423.9481-2.3634-.0373-3.3775a1.1504 1.1504 0 0 1-.0358-.0384Z" fill="#CDCDCD"/></svg>
