<svg width="44" height="44" fill="none" xmlns="http://www.w3.org/2000/svg"><circle cx="22" cy="22" r="21.5" fill="#fff" stroke="#CDCDCD"/><path d="M15.6572 14.9589c.3897-.3896 1.0214-.3896 1.411 0l5.2809 5.2809 5.2809-5.2809c.3896-.3896 1.0214-.3896 1.411 0 .3897.3896.3897 1.0214 0 1.411l-5.2809 5.2809 5.2809 5.2809c.3897.3896.3897 1.0214 0 1.411-.3896.3896-1.0214.3896-1.411 0l-5.2809-5.2809-5.2809 5.2809c-.3896.3896-1.0213.3896-1.411 0-.3896-.3896-.3896-1.0214 0-1.411l5.2809-5.2809-5.2809-5.2809c-.3896-.3896-.3896-1.0214 0-1.411Z" fill="#CDCDCD"/></svg>
