<svg width="800" height="325" fill="none" xmlns="http://www.w3.org/2000/svg"><g opacity=".7" fill="#EAEAEA"><path d="M.16 258.608v-38.482L136.386 4.935h30.324V61.58h-19.241L50.033 215.816v2.463h186.714v40.329H.16Zm149.464 61.571v-73.27l.308-17.548V4.935h45.1v315.244h-45.408ZM400.141 325.412c-24.321-.102-45.101-6.516-62.341-19.241-17.24-12.724-30.426-31.247-39.559-55.568-9.133-24.32-13.7-53.618-13.7-87.892 0-34.172 4.567-63.367 13.7-87.585 9.235-24.218 22.473-42.69 39.713-55.414C355.297 6.987 376.025.625 400.141.625c24.115 0 44.793 6.414 62.033 19.24 17.239 12.726 30.426 31.197 39.559 55.415 9.236 24.115 13.853 53.259 13.853 87.431 0 34.377-4.566 63.726-13.699 88.046-9.133 24.218-22.32 42.741-39.559 55.568-17.24 12.725-37.969 19.087-62.187 19.087Zm0-41.099c21.344 0 38.02-10.415 50.026-31.247 12.109-20.831 18.164-50.95 18.164-90.355 0-26.168-2.771-48.282-8.312-66.343-5.439-18.163-13.289-31.914-23.551-41.253-10.16-9.44-22.268-14.161-36.327-14.161-21.242 0-37.918 10.467-50.027 31.401-12.109 20.934-18.214 51.053-18.317 90.356 0 26.27 2.719 48.487 8.158 66.65 5.542 18.061 13.392 31.761 23.551 41.099 10.159 9.236 22.371 13.853 36.635 13.853ZM563.573 258.608v-38.482L699.799 4.935h30.324V61.58h-19.241l-97.436 154.236v2.463H800.16v40.329H563.573Zm149.464 61.571v-73.27l.308-17.548V4.935h45.101v315.244h-45.409Z"/></g></svg>
