<svg width="14" height="14" fill="none" xmlns="http://www.w3.org/2000/svg"><path d="M5.6 1.4c-1.5464 0-2.8 1.2536-2.8 2.8C2.8 5.7464 4.0536 7 5.6 7c1.5464 0 2.8-1.2536 2.8-2.8 0-1.5464-1.2536-2.8-2.8-2.8ZM1.4 4.2C1.4 1.8804 3.2804 0 5.6 0c2.3196 0 4.2 1.8804 4.2 4.2 0 2.3196-1.8804 4.2-4.2 4.2-2.3196 0-4.2-1.8804-4.2-4.2Zm8.9799-2.9699a.7.7 0 0 1 .99 0c1.6402 1.6403 1.6402 4.2995 0 5.9398a.7.7 0 0 1-.99-.99c1.0935-1.0935 1.0935-2.8663 0-3.9598a.7.7 0 0 1 0-.99Zm.491 9.1001a.7.7 0 0 1 .8489-.5093c.9295.2324 1.5179.8268 1.8563 1.5035C13.9035 11.9793 14 12.71 14 13.3a.7.7 0 1 1-1.4 0c0-.46-.0785-.9543-.2761-1.3494-.1866-.3733-.4732-.6539-.9437-.7715a.7.7 0 0 1-.5093-.8489ZM3.15 11.2c-.8816 0-1.75.8495-1.75 2.1a.7.7 0 1 1-1.4 0c0-1.8423 1.3254-3.5 3.15-3.5h4.9c1.8246 0 3.15 1.6577 3.15 3.5a.7.7 0 1 1-1.4 0c0-1.2505-.8684-2.1-1.75-2.1h-4.9Z" fill="#999"/></svg>
