<svg width="36" height="28" fill="none" xmlns="http://www.w3.org/2000/svg"><path d="M11.3272.5126C11.6648.1844 12.1226 0 12.6 0h10.8c.4774 0 .9352.1844 1.2728.5126L27.7456 3.5H32.4C34.3882 3.5 36 5.067 36 7v17.5c0 1.933-1.6118 3.5-3.6 3.5H3.6C1.6118 28 0 26.433 0 24.5V7c0-1.933 1.6118-3.5 3.6-3.5h4.6544L11.3272.5126ZM13.3456 3.5l-3.0728 2.9874C9.9352 6.8156 9.4774 7 9 7H3.6v17.5h28.8V7H27c-.4774 0-.9352-.1844-1.2728-.5126L22.6544 3.5h-9.3088ZM18 11.375c-1.9882 0-3.6 1.567-3.6 3.5s1.6118 3.5 3.6 3.5c1.9882 0 3.6-1.567 3.6-3.5s-1.6118-3.5-3.6-3.5Zm-7.2 3.5c0-3.866 3.2236-7 7.2-7 3.9764 0 7.2 3.134 7.2 7s-3.2236 7-7.2 7c-3.9764 0-7.2-3.134-7.2-7Z" fill="#fff"/></svg>
